<?xml version="1.0" standalone="no"?>
<!DOCTYPE svg PUBLIC "-//W3C//DTD SVG 20010904//EN"
 "http://www.w3.org/TR/2001/REC-SVG-20010904/DTD/svg10.dtd">
<svg version="1.0" xmlns="http://www.w3.org/2000/svg"
 width="400.000000pt" height="400.000000pt" viewBox="0 0 400.000000 400.000000"
 preserveAspectRatio="xMidYMid meet">

<g transform="translate(0.000000,400.000000) scale(0.100000,-0.100000)"
fill="#000000" stroke="none">
<path d="M2175 3860 c-959 -85 -1816 -477 -2048 -936 -59 -116 -72 -253 -37
-368 23 -74 76 -148 246 -341 135 -153 326 -408 489 -650 70 -104 129 -191
130 -193 2 -2 38 6 81 17 44 11 114 25 157 32 42 6 77 13 77 14 0 10 -63 144
-125 267 -144 285 -300 537 -499 807 -111 150 -129 188 -113 234 23 69 222
188 327 195 101 6 112 -11 375 -563 117 -247 290 -657 360 -857 l27 -77 57 -6
c214 -23 412 -64 766 -160 263 -71 505 -105 762 -105 264 0 451 66 582 205 99
107 136 215 129 377 -3 77 -9 104 -32 151 -109 224 -401 190 -839 -99 -71 -47
-131 -84 -132 -82 -5 5 -43 205 -59 308 -48 307 -68 754 -47 1075 30 451 27
510 -29 599 -60 94 -209 155 -395 161 -60 2 -155 0 -210 -5z"/>
<path d="M1072 1179 c-208 -27 -403 -127 -553 -285 -99 -105 -145 -241 -136
-398 11 -165 81 -260 225 -307 93 -30 316 -38 429 -15 235 47 334 103 679 378
202 161 308 230 433 283 88 37 217 71 311 81 36 3 71 10 79 14 35 19 -460 146
-813 210 -247 45 -495 60 -654 39z"/>
</g>
</svg>
